<?xml version="1.0" standalone="no"?>
<!DOCTYPE svg PUBLIC "-//W3C//DTD SVG 20010904//EN"
 "http://www.w3.org/TR/2001/REC-SVG-20010904/DTD/svg10.dtd">
<svg version="1.0" xmlns="http://www.w3.org/2000/svg"
 width="1000.000000pt" height="1000.000000pt" viewBox="0 0 1000.000000 1000.000000"
 preserveAspectRatio="xMidYMid meet">
<metadata>
Created by potrace 1.14, written by Peter Selinger 2001-2017
</metadata>
<g transform="translate(0.000000,1000.000000) scale(0.100000,-0.100000)"
fill="#000000" stroke="none">
<path d="M0 5000 l0 -5000 5000 0 5000 0 0 5000 0 5000 -5000 0 -5000 0 0
-5000z m5500 1915 c344 -15 407 -24 479 -69 62 -40 85 -87 86 -176 0 -89 -15
-121 -83 -186 -41 -39 -45 -46 -30 -54 40 -24 80 -65 106 -109 24 -40 27 -56
27 -131 0 -109 -16 -161 -68 -217 -62 -68 -163 -112 -294 -128 -29 -4 -55 -10
-58 -14 -2 -5 35 -16 83 -25 194 -38 271 -110 272 -254 0 -77 -16 -118 -68
-170 l-41 -41 55 -46 c81 -69 108 -128 108 -235 1 -101 -14 -149 -62 -202 -68
-75 -151 -102 -347 -113 -231 -12 -238 -18 -40 -35 222 -20 282 -37 346 -100
53 -51 69 -93 69 -183 0 -70 -25 -125 -75 -163 -19 -14 -35 -29 -35 -33 0 -3
21 -17 46 -30 95 -51 156 -161 156 -281 1 -107 -41 -179 -132 -225 -84 -42
-126 -45 -660 -45 l-510 0 0 128 c0 70 -3 301 -7 514 -6 407 -5 418 37 418 10
0 23 6 29 14 9 11 5 15 -24 20 -25 5 -36 13 -39 29 -7 34 -15 978 -9 1010 4
20 14 32 34 39 38 13 37 23 -3 34 l-33 10 -5 154 c-3 85 -5 321 -5 523 0 316
2 369 15 377 21 14 304 12 680 -5z m-786 -10 c12 -32 7 -262 -7 -273 -6 -6
-88 -14 -180 -18 -109 -4 -173 -11 -185 -20 -15 -11 -17 -30 -17 -146 0 -73 5
-228 9 -345 7 -166 6 -218 -4 -243 -7 -17 -10 -33 -7 -37 4 -3 99 -7 212 -8
112 -1 207 -4 210 -6 9 -10 25 -112 25 -163 0 -50 -13 -122 -23 -133 -3 -3
-80 -8 -172 -12 -137 -6 -169 -10 -183 -25 -15 -15 -18 -53 -22 -369 l-5 -352
-34 -17 c-33 -16 -33 -17 -10 -22 13 -3 113 -7 222 -8 163 -3 200 -6 208 -18
16 -24 6 -270 -12 -281 -8 -5 -87 -9 -177 -9 -90 0 -171 -4 -181 -10 -24 -12
-29 -59 -41 -370 -11 -274 -20 -358 -41 -371 -18 -11 -346 -12 -353 0 -3 5 1
109 9 232 19 283 20 485 3 496 -7 4 -89 7 -181 5 -124 -2 -173 1 -184 10 -12
10 -14 30 -9 113 10 149 15 173 37 180 44 14 1 25 -97 25 -116 0 -125 4 -163
79 -35 67 -43 71 -140 71 -121 0 -340 -19 -363 -31 -10 -5 -32 -34 -48 -63
-50 -89 -52 -89 -219 -100 -81 -5 -160 -6 -175 -2 -27 7 -28 9 -22 54 3 26 8
57 10 70 3 12 3 22 2 22 -2 0 -54 -33 -115 -74 -61 -41 -120 -78 -131 -81 -39
-12 -22 -41 43 -75 84 -45 160 -119 188 -183 25 -56 33 -177 13 -197 -15 -15
-143 -29 -271 -30 l-113 0 -25 40 c-32 50 -56 65 -125 79 -121 23 -285 -13
-367 -83 -71 -60 -114 -214 -79 -287 28 -59 75 -82 174 -87 151 -7 256 31 347
125 64 67 83 72 283 72 131 1 133 1 144 -24 8 -17 8 -39 1 -75 -10 -49 -10
-50 9 -33 47 43 249 385 385 653 44 87 51 96 88 108 46 15 371 29 428 18 33
-6 39 -13 71 -79 44 -93 136 -327 191 -487 24 -69 58 -163 75 -210 59 -156 89
-255 80 -264 -5 -5 -98 -9 -206 -10 l-197 -1 -27 64 c-15 35 -36 68 -46 74
-19 11 -413 2 -474 -11 -28 -6 -46 -23 -92 -82 -54 -71 -60 -75 -105 -82 -85
-11 -333 -9 -333 3 0 6 18 45 41 85 22 41 37 74 33 74 -3 0 -1 7 6 15 7 8 8
15 2 15 -5 0 -15 -7 -22 -15 -21 -25 -162 -111 -235 -143 -167 -72 -324 -102
-553 -103 -229 -2 -356 34 -440 125 -66 72 -85 168 -62 316 41 256 181 451
415 576 55 30 55 47 0 74 -51 24 -136 89 -172 129 -72 83 -104 243 -86 430 8
84 16 114 46 174 40 80 120 169 205 227 29 19 52 40 52 47 0 6 -24 20 -52 31
-123 46 -174 77 -243 146 -109 110 -164 232 -184 412 -31 273 145 422 584 494
148 24 320 26 420 5 164 -35 309 -140 361 -261 21 -50 25 -70 17 -82 -13 -21
-108 -38 -260 -48 l-112 -7 -40 36 c-58 53 -131 71 -251 64 -157 -9 -243 -47
-280 -123 -52 -105 1 -244 112 -298 48 -23 63 -25 158 -22 159 4 255 48 300
137 11 21 28 43 38 48 22 11 140 28 258 36 86 6 93 5 113 -16 11 -12 23 -31
27 -41 10 -32 22 -20 48 50 14 37 34 92 46 122 11 30 32 98 46 150 14 52 44
153 67 224 34 104 46 130 65 137 33 13 260 37 381 41 l105 3 30 -41 c84 -114
220 -320 268 -409 63 -115 83 -149 128 -225 52 -87 160 -311 160 -331 0 -10
-5 -21 -12 -25 -22 -14 42 -23 121 -17 85 6 118 18 103 36 -6 7 -12 102 -16
212 -8 293 -24 485 -42 513 l-16 24 -182 -7 c-160 -7 -183 -6 -195 9 -8 9 -17
65 -23 137 -9 100 -8 123 3 134 10 10 77 19 234 30 238 16 303 19 706 23 238
2 267 1 273 -13z m2332 -70 c221 -31 389 -118 462 -238 76 -126 81 -260 16
-458 -32 -99 -70 -158 -135 -209 -124 -98 -229 -130 -444 -137 -404 -13 -664
94 -768 315 -29 61 -32 78 -35 183 -5 132 10 206 58 305 106 216 403 300 846
239z m881 -125 c99 -16 103 -19 172 -136 109 -186 101 -176 143 -171 22 3 68
25 110 53 40 26 80 48 88 49 8 1 26 7 38 14 13 7 26 10 29 7 3 -2 15 -1 27 4
16 6 31 3 54 -12 35 -22 40 -44 17 -87 -8 -16 -11 -32 -7 -35 4 -4 -4 -16 -18
-26 -14 -10 -25 -23 -25 -28 0 -5 -28 -36 -63 -68 -69 -65 -86 -110 -61 -155
20 -36 48 -121 49 -146 0 -33 11 -54 24 -46 6 3 8 3 4 -2 -4 -4 -1 -20 7 -36
16 -29 20 -145 7 -165 -4 -7 -38 -14 -75 -16 -52 -3 -71 0 -82 12 -32 34 -104
123 -160 200 -34 46 -70 83 -83 86 -27 7 -47 -7 -202 -150 l-115 -106 -67 0
c-82 0 -261 20 -279 31 -25 15 8 53 211 238 111 102 209 195 216 206 17 26 -1
67 -107 245 -92 154 -129 225 -129 246 0 14 12 16 108 10 59 -4 135 -11 169
-16z m-977 -946 c216 -25 417 -147 490 -299 39 -82 53 -174 48 -318 -3 -111
-7 -128 -34 -187 -57 -120 -118 -171 -266 -222 l-93 -32 -220 0 c-211 0 -224
1 -310 27 -192 59 -299 130 -369 246 -46 75 -66 147 -72 261 -24 402 269 587
826 524z m814 -98 c43 -9 84 -20 91 -26 7 -6 41 -52 75 -103 95 -139 128 -177
154 -177 21 0 152 104 197 156 46 53 104 78 115 50 4 -10 18 -16 36 -16 16 0
37 -4 47 -10 17 -9 18 -13 4 -72 -8 -35 -22 -71 -30 -80 -9 -10 -12 -18 -8
-18 5 0 -3 -12 -17 -27 -14 -16 -28 -35 -32 -43 -4 -8 -18 -33 -31 -55 -54
-88 -58 -102 -39 -151 9 -24 21 -44 26 -44 5 0 7 -4 4 -8 -4 -8 12 -43 67
-147 9 -16 23 -61 31 -100 8 -38 18 -80 22 -93 6 -23 5 -23 -39 -20 -25 2 -52
10 -61 17 -14 11 -16 11 -16 -3 0 -22 -13 -20 -28 4 -7 11 -18 20 -25 21 -6 0
-34 28 -60 62 -74 97 -157 177 -181 177 -32 0 -70 -40 -181 -190 -31 -41 -61
-78 -68 -82 -26 -16 -333 5 -353 25 -12 12 26 69 142 214 71 87 133 163 140
168 20 18 54 73 54 88 0 18 -46 86 -162 239 -131 174 -168 229 -168 251 0 19
5 19 108 14 59 -4 142 -13 186 -21z m-691 -1015 c188 -49 315 -127 391 -240
88 -131 114 -213 123 -383 5 -106 4 -122 -17 -179 -59 -157 -222 -229 -530
-235 -266 -4 -414 20 -568 93 -106 50 -204 148 -258 257 l-39 80 0 150 c0 175
10 221 64 292 69 91 177 150 330 179 111 21 398 13 504 -14z m632 -40 c167
-16 169 -17 285 -172 14 -19 50 -60 81 -92 69 -72 77 -71 162 21 127 136 136
144 153 127 15 -14 39 -12 30 4 -3 3 4 7 15 7 10 0 19 -4 19 -8 0 -4 14 -8 31
-8 21 0 29 -4 26 -12 -19 -46 -20 -51 -10 -45 14 9 0 -71 -19 -108 -9 -16 -17
-52 -19 -80 -2 -27 -8 -53 -14 -57 -15 -11 -15 -141 0 -185 7 -20 11 -46 9
-56 -2 -13 1 -17 11 -13 11 4 12 0 5 -19 -7 -18 -4 -30 11 -48 20 -26 26 -57
10 -57 -5 0 -7 -9 -4 -20 3 -11 9 -20 14 -20 5 0 1 -9 -8 -20 -17 -19 -18 -19
-38 -1 -11 10 -25 17 -30 15 -6 -3 -26 12 -45 31 -19 19 -38 35 -44 35 -5 0
-19 9 -30 20 -12 10 -38 26 -59 35 l-37 15 -33 -34 c-17 -19 -48 -58 -67 -86
-89 -132 -105 -147 -157 -155 -118 -18 -293 -5 -293 21 0 20 87 184 158 297
94 148 95 152 78 185 -8 15 -64 79 -126 142 -187 193 -280 302 -280 328 0 22
75 26 215 13z m813 -766 c-3 -4 -16 9 -28 27 l-23 33 28 -27 c16 -15 26 -30
23 -33z"/>
<path d="M5240 6661 c-32 -5 -35 -9 -38 -44 -2 -21 2 -44 8 -51 13 -16 116
-25 298 -27 146 -2 172 7 172 60 0 45 -14 55 -92 62 -86 9 -298 9 -348 0z"/>
<path d="M5214 6273 c-33 -24 -26 -119 11 -133 12 -5 112 -12 221 -15 195 -7
200 -7 227 15 21 17 27 30 27 60 0 69 -19 75 -265 78 -115 1 -215 -1 -221 -5z"/>
<path d="M5234 5541 c-25 -11 -34 -38 -23 -68 11 -29 46 -35 237 -37 144 -1
162 1 181 18 27 24 27 48 0 72 -19 17 -40 19 -197 21 -98 2 -187 -1 -198 -6z"/>
<path d="M5222 5154 c-17 -12 -22 -25 -22 -58 0 -69 4 -71 241 -74 l208 -4 27
27 c21 21 25 32 20 58 -12 58 -38 65 -266 66 -153 1 -189 -2 -208 -15z"/>
<path d="M5222 4439 c-21 -8 -23 -14 -20 -61 l3 -53 165 -8 c184 -9 274 -5
295 13 16 13 20 67 7 87 -4 6 -20 17 -35 22 -35 13 -383 14 -415 0z"/>
<path d="M5207 4063 c-4 -3 -7 -41 -7 -84 l0 -77 63 -5 c34 -2 146 -4 249 -3
176 1 189 2 208 22 22 22 28 63 15 102 -14 45 -55 52 -298 52 -123 0 -227 -3
-230 -7z"/>
<path d="M2956 6423 c-18 -36 -29 -124 -17 -142 11 -17 88 -19 118 -3 23 13
22 37 -5 82 -60 100 -72 108 -96 63z"/>
<path d="M2990 5943 c-86 -6 -175 -25 -192 -40 -9 -8 -26 -39 -38 -69 -15 -37
-32 -60 -50 -69 -31 -16 -316 -42 -344 -32 -17 7 -18 15 -12 72 4 36 3 65 -2
65 -5 0 -36 -22 -69 -48 -33 -27 -79 -62 -101 -78 -45 -31 -54 -63 -22 -71 49
-13 159 -73 201 -111 59 -53 108 -149 111 -222 3 -50 1 -55 -23 -67 -31 -15
-258 -37 -311 -30 -26 4 -46 15 -64 36 -49 58 -96 75 -214 75 -133 1 -205 -20
-266 -78 -112 -109 -71 -311 73 -354 80 -24 225 -7 311 37 38 19 112 92 112
110 0 21 87 37 256 47 110 6 112 6 127 -17 9 -13 19 -36 22 -52 l7 -27 20 22
c18 20 118 220 118 235 0 7 65 173 85 218 8 17 31 74 52 129 23 60 46 104 60
113 29 19 118 30 298 38 114 4 156 3 175 -7 35 -19 220 -388 365 -728 31 -74
73 -170 92 -213 19 -42 32 -81 28 -86 -3 -5 -19 -12 -35 -16 -18 -4 -27 -11
-24 -17 7 -11 289 -6 301 5 3 4 -5 15 -18 26 l-24 19 -1 329 c0 266 -3 334
-15 358 l-14 30 -177 3 -177 2 -5 28 c-9 45 -10 255 -2 279 8 22 7 22 -115 25
l-124 3 -31 47 c-59 91 -53 88 -183 86 -64 -1 -136 -3 -161 -5z"/>
<path d="M3058 5288 c3 -12 0 -18 -9 -16 -8 2 -14 -4 -14 -12 0 -8 -3 -17 -7
-20 -4 -3 -5 -15 -2 -27 5 -18 12 -20 57 -17 28 2 54 7 58 11 11 11 -1 54 -12
47 -5 -3 -9 1 -9 8 0 23 -16 39 -42 42 -21 2 -24 -1 -20 -16z"/>
<path d="M3014 4238 c-26 -12 -79 -120 -71 -142 5 -13 22 -16 76 -16 67 0 71
1 77 24 7 28 -11 90 -35 123 -18 25 -18 25 -47 11z"/>
<path d="M6689 6572 c-114 -38 -168 -106 -177 -223 -6 -91 14 -145 75 -198 68
-61 124 -76 278 -76 115 0 136 3 180 23 61 28 111 75 132 122 24 57 29 179 8
223 -24 51 -72 91 -142 117 -83 32 -274 38 -354 12z"/>
<path d="M6670 5487 c-125 -35 -181 -96 -188 -203 -6 -96 12 -149 73 -210 55
-55 100 -75 217 -95 137 -23 286 25 334 107 33 55 43 152 24 221 -19 66 -87
134 -165 163 -74 27 -228 36 -295 17z"/>
<path d="M6700 4391 c-53 -17 -109 -52 -132 -83 -31 -44 -38 -163 -13 -237 44
-134 240 -218 450 -192 130 16 183 50 211 134 23 69 14 161 -23 230 -35 64
-113 120 -198 142 -62 16 -250 20 -295 6z"/>
</g>
</svg>
